# xmcd
#
# Track frame offsets: 
#        150
#        19797
#        48431
#        67860
#        90657
#        116054
#        121969
#        173335
#        200136
#        230404
#
# Disc length: 3305 seconds
#
# Revision: 0
# Processed by: cddbd v1.5.2PL0 Copyright (c) Steve Scherf et al.
# Submitted via: ExactAudioCopyFreeDBPlugin 1.0
#
DISCID=7d0ce70a
DTITLE=Bedlam - In Command 1973
DYEAR=2012
DGENRE=Blues
TTITLE0=I Believe In You
TTITLE1=Hot Lips
TTITLE2=Putting On The Flesh
TTITLE3=Sarah
TTITLE4=Drum Solo Seven Long Years
TTITLE5=Mother In Law
TTITLE6=The Fool
TTITLE7=The Beast
TTITLE8=Set Me Free
TTITLE9=Dance With The Devil
EXTD=
EXTT0=
EXTT1=
EXTT2=
EXTT3=
EXTT4=
EXTT5=
EXTT6=
EXTT7=
EXTT8=
EXTT9=
PLAYORDER=
